<?xml version="1.0" encoding="UTF-8"?>
<svg xmlns="http://www.w3.org/2000/svg" viewBox="0 0 1280 720" width="1280" height="720">
  <rect width="1280" height="720" fill="#FFFFFF"/>
  <image href="top_left_motif_standard.png" x="0" y="13" width="70" height="62" preserveAspectRatio="xMidYMid meet"/>
  <image href="full_top_right_school_logo.png" x="1060" y="13" width="220" height="66" preserveAspectRatio="xMidYMid meet"/>
  <text x="92" y="60" fill="#003F43" font-family="Microsoft YaHei, Arial, sans-serif" font-size="32" font-weight="bold">{{PAGE_TITLE}}</text>
  <line x1="92" y1="76" x2="280" y2="76" stroke="#E3660D" stroke-width="3"/>
  <line x1="280" y1="76" x2="1188" y2="76" stroke="#CECECE" stroke-width="1"/>
  <text x="92" y="106" fill="#585555" font-family="Microsoft YaHei, Arial, sans-serif" font-size="26.7">{{SECTION_NAME}}</text>
  <rect x="72" y="156" width="760" height="510" rx="22" fill="#EAF1F0"/>
  <rect x="72" y="156" width="760" height="510" rx="22" fill="none" stroke="#CECECE" stroke-width="1.2"/>
  <text x="452" y="380" text-anchor="middle" fill="#A8A4A1" font-family="Microsoft YaHei, Arial, sans-serif" font-size="24">Evidence Main Area</text>
  <text x="452" y="410" text-anchor="middle" fill="#A8A4A1" font-family="Microsoft YaHei, Arial, sans-serif" font-size="15">Formula-led / chart-led / balanced reasoning</text>
  <rect x="856" y="156" width="352" height="124" rx="18" fill="#FFFFFF" stroke="#CECECE" stroke-width="1.5"/>
  <text x="884" y="198" fill="#003F43" font-family="Microsoft YaHei, Arial, sans-serif" font-size="22" font-weight="bold">Reasoning Spine</text>
  <rect x="884" y="224" width="76" height="30" rx="10" fill="#F6EBDF"/>
  <rect x="990" y="224" width="82" height="30" rx="10" fill="#EAF1F0"/>
  <rect x="1102" y="224" width="76" height="30" rx="10" fill="#F6EBDF"/>
  <text x="922" y="245" text-anchor="middle" fill="#585555" font-family="Microsoft YaHei, Arial, sans-serif" font-size="12">Input</text>
  <text x="1031" y="245" text-anchor="middle" fill="#585555" font-family="Microsoft YaHei, Arial, sans-serif" font-size="12">Reason</text>
  <text x="1140" y="245" text-anchor="middle" fill="#585555" font-family="Microsoft YaHei, Arial, sans-serif" font-size="12">Output</text>
  <path d="M 960 238 H 984 L 984 234 L 990 238 L 984 242 L 984 238 H 960 Z" fill="#E3660D"/>
  <path d="M 1072 238 H 1096 L 1096 234 L 1102 238 L 1096 242 L 1096 238 H 1072 Z" fill="#E3660D"/>
  <rect x="856" y="298" width="352" height="368" rx="18" fill="#F6EBDF"/>
  <text x="1032" y="466" text-anchor="middle" fill="#A8A4A1" font-family="Microsoft YaHei, Arial, sans-serif" font-size="22">{{CONTENT_AREA}}</text>
  <text x="1032" y="496" text-anchor="middle" fill="#A8A4A1" font-family="Microsoft YaHei, Arial, sans-serif" font-size="15">Explanation / derivation / interpretation</text>
  <line x1="92" y1="688" x2="1188" y2="688" stroke="#CECECE" stroke-width="1"/>
  <text x="92" y="704" fill="#9D9D9D" font-family="Microsoft YaHei, Arial, sans-serif" font-size="13">Southern University of Science and Technology</text>
  <text x="1188" y="704" text-anchor="end" fill="#003F43" font-family="Arial, sans-serif" font-size="16" font-weight="bold">{{PAGE_NUM}}</text>
</svg>
