<?xml version="1.0" encoding="UTF-8"?>
<svg xmlns="http://www.w3.org/2000/svg" viewBox="0 0 1280 720" width="1280" height="720">
  <rect width="1280" height="720" fill="#FFFFFF"/>
  <image href="top_left_motif_standard.png" x="0" y="13" width="70" height="62" preserveAspectRatio="xMidYMid meet"/>
  <image href="full_top_right_school_logo.png" x="1060" y="13" width="220" height="66" preserveAspectRatio="xMidYMid meet"/>
  <text x="92" y="60" fill="#003F43" font-family="Microsoft YaHei, Arial, sans-serif" font-size="32" font-weight="bold">{{PAGE_TITLE}}</text>
  <line x1="92" y1="76" x2="280" y2="76" stroke="#E3660D" stroke-width="3"/>
  <line x1="280" y1="76" x2="1188" y2="76" stroke="#CECECE" stroke-width="1"/>
  <text x="92" y="106" fill="#585555" font-family="Microsoft YaHei, Arial, sans-serif" font-size="26.7">{{SECTION_NAME}}</text>
  <text x="92" y="124" fill="#9D9D9D" font-family="Arial, sans-serif" font-size="11">FLEXIBLE WORKING ZONE</text>
  <rect x="72" y="132" width="1136" height="534" rx="16" fill="#FFFFFF"/>
  <rect x="72" y="132" width="1136" height="534" rx="16" fill="none" stroke="#CECECE" stroke-width="1.2" stroke-dasharray="10 8"/>
  <path d="M 72 132 L 106 132 L 106 136 L 76 136 L 76 166 L 72 166 Z" fill="#E3660D"/>
  <path d="M 1208 666 L 1174 666 L 1174 662 L 1204 662 L 1204 632 L 1208 632 Z" fill="#01ABA8"/>
  <text x="640" y="394" text-anchor="middle" fill="#A8A4A1" font-family="Microsoft YaHei, Arial, sans-serif" font-size="22">{{CONTENT_AREA}}</text>
  <text x="640" y="422" text-anchor="middle" fill="#A8A4A1" font-family="Microsoft YaHei, Arial, sans-serif" font-size="16">Flexible composition for summary / mixed content / evidence pages</text>
  <line x1="92" y1="688" x2="1188" y2="688" stroke="#CECECE" stroke-width="1"/>
  <text x="92" y="704" fill="#9D9D9D" font-family="Microsoft YaHei, Arial, sans-serif" font-size="13">Southern University of Science and Technology</text>
  <text x="1188" y="704" text-anchor="end" fill="#003F43" font-family="Arial, sans-serif" font-size="16" font-weight="bold">{{PAGE_NUM}}</text>
</svg>
